<?xml version="1.0" standalone="no"?>
<!DOCTYPE svg PUBLIC "-//W3C//DTD SVG 20010904//EN"
 "http://www.w3.org/TR/2001/REC-SVG-20010904/DTD/svg10.dtd">
<svg version="1.0" xmlns="http://www.w3.org/2000/svg"
 width="616.000000pt" height="654.000000pt" viewBox="0 0 616.000000 654.000000"
 preserveAspectRatio="xMidYMid meet">
<g transform="translate(0.000000,654.000000) scale(0.100000,-0.100000)"
fill="#000000" stroke="none">
<path d="M1373 6315 c-17 -7 -40 -28 -50 -47 -17 -31 -18 -87 -20 -977 l-3
-944 -427 -286 c-458 -306 -471 -317 -512 -426 l-21 -56 2 -1592 3 -1592 27
-57 c34 -73 103 -142 176 -176 l57 -27 2520 0 2520 0 58 29 c71 36 140 108
175 184 l27 57 2 1565 c2 1088 -1 1582 -8 1620 -6 30 -25 82 -42 114 -30 56
-57 80 -474 414 l-443 354 0 881 c0 867 0 883 -20 915 -41 66 83 62 -1802 62
-1437 -1 -1718 -3 -1745 -15z m3325 -1817 l2 -1587 -117 -99 c-65 -54 -168
-138 -229 -188 -61 -49 -206 -168 -324 -264 -117 -96 -239 -195 -269 -221
-155 -126 -369 -301 -480 -392 -176 -145 -154 -135 -209 -90 -25 21 -225 184
-443 363 -218 179 -550 451 -738 604 l-341 279 0 1593 0 1594 1573 -2 1572 -3
3 -1587z m645 -658 c135 -107 245 -198 244 -201 -2 -7 -131 -114 -346 -288
-64 -51 -152 -124 -196 -160 -44 -37 -86 -71 -92 -75 -10 -6 -13 101 -13 518
l0 526 79 -62 c43 -35 189 -151 324 -258z m-4038 -260 c0 -259 -3 -469 -7
-468 -13 5 -628 511 -628 517 0 8 612 419 625 420 7 1 10 -162 10 -469z m-410
-455 c154 -126 316 -258 360 -295 44 -36 253 -207 465 -380 212 -172 393 -320
402 -329 17 -15 -32 -66 -762 -796 l-780 -780 0 1419 c0 1351 1 1418 18 1404
9 -8 143 -118 297 -243z m4775 -1160 c0 -778 -4 -1415 -8 -1415 -4 0 -357 350
-784 778 l-777 777 300 245 c165 135 331 270 368 300 100 82 605 494 690 564
40 34 101 84 135 113 33 29 64 53 68 53 5 0 8 -637 8 -1415z m-3022 -274 c36
-29 138 -112 227 -185 199 -164 202 -166 243 -166 53 0 24 -21 452 329 102 83
205 169 230 189 25 21 61 50 80 65 l36 26 789 -789 790 -790 -2369 0 c-1303 0
-2367 2 -2365 4 2 3 322 324 711 713 650 651 707 710 704 738 -4 27 -3 28 11
10 14 -19 15 -19 48 17 23 25 33 43 29 55 -5 15 -4 16 5 3 9 -13 14 -11 37 12
l27 27 124 -102 c69 -56 154 -126 191 -156z"/>
<path d="M2583 5515 c-65 -28 -63 0 -63 -777 0 -772 -1 -754 61 -883 71 -145
203 -257 367 -310 l52 -17 0 -369 0 -369 -195 0 c-209 0 -237 -5 -269 -52 -20
-28 -20 -90 -1 -128 31 -61 24 -60 587 -60 390 0 519 3 538 13 13 7 35 28 48
47 34 50 26 104 -22 147 l-36 33 -205 0 -205 0 0 369 0 369 68 21 c87 26 204
102 265 172 27 30 66 90 88 134 69 139 69 139 69 893 0 742 2 723 -62 762 -32
19 -49 20 -543 20 -412 -1 -516 -3 -542 -15z m902 -470 l0 -240 -362 -3 -363
-2 0 245 0 245 363 -2 362 -3 0 -240z m3 -737 c-4 -233 -6 -258 -26 -309 -110
-278 -474 -321 -641 -75 -56 82 -61 116 -61 388 l0 248 366 0 366 0 -4 -252z"/>
<path d="M1880 849 c-90 -19 -120 -143 -49 -203 104 -88 247 23 185 143 -27
52 -75 73 -136 60z"/>
<path d="M2313 817 c-31 -29 -36 -40 -36 -78 0 -55 25 -97 70 -115 27 -12 208
-14 1019 -14 892 0 989 2 1020 16 42 20 64 59 64 115 0 33 -6 47 -34 75 l-34
34 -1016 0 -1016 0 -37 -33z"/>
</g>
</svg>
